<svg width="155" height="93" viewBox="0 0 155 93" fill="none" xmlns="http://www.w3.org/2000/svg">
<path d="M151.771 61.8586C151.554 62.3673 151.033 63.1664 150.427 63.1664C148.675 63.1664 144.163 63.1664 144.163 63.1664V25.0149C144.163 25.0149 148.549 25.0149 150.427 25.0149C151.195 25.0149 151.581 25.79 151.771 26.3186C154.59 34.1201 154.974 54.41 151.771 61.8586Z" fill="#706F6F"/>
<path d="M148.818 44.0904C148.818 54.6243 146.733 63.1655 144.161 63.1655C141.59 63.1655 139.506 54.6243 139.506 44.0904C139.506 33.5545 141.59 25.0145 144.161 25.0145C146.732 25.0145 148.818 33.5545 148.818 44.0904Z" fill="#4A4A49"/>
<path d="M147.313 44.09C147.313 51.2179 145.903 57.0007 144.161 57.0007C142.422 57.0007 141.01 51.2179 141.01 44.09C141.01 36.9592 142.422 31.1777 144.161 31.1777C145.903 31.1781 147.313 36.9592 147.313 44.09Z" fill="#282727"/>
<path opacity="0.8" d="M141.731 44.958C141.731 37.8309 143.141 32.049 144.883 32.049C145.062 32.049 145.239 32.1147 145.411 32.2333C145.027 31.5549 144.605 31.1777 144.161 31.1777C142.422 31.1777 141.01 36.9588 141.01 44.09C141.01 50.4818 142.145 55.7883 143.634 56.8151C142.514 54.8342 141.731 50.2723 141.731 44.958Z" fill="black"/>
<path d="M2.26086 61.8586C2.47807 62.3673 2.99857 63.1664 3.60475 63.1664C5.35668 63.1664 9.86947 63.1664 9.86947 63.1664V25.0149C9.86947 25.0149 5.48295 25.0149 3.60475 25.0149C2.83658 25.0149 2.45127 25.79 2.26086 26.3186C-0.55766 34.1201 -0.942151 54.41 2.26086 61.8586Z" fill="#706F6F"/>
<path d="M5.20801 44.0904C5.20801 54.6243 7.29327 63.1655 9.86493 63.1655C12.4358 63.1655 14.5202 54.6243 14.5202 44.0904C14.5202 33.5545 12.4358 25.0145 9.86493 25.0145C7.29327 25.0145 5.20801 33.5545 5.20801 44.0904Z" fill="#4A4A49"/>
<path d="M6.71533 44.09C6.71533 51.2179 8.1254 57.0007 9.86678 57.0007C11.6061 57.0007 13.0174 51.2179 13.0174 44.09C13.0174 36.9592 11.6061 31.1777 9.86678 31.1777C8.125 31.1781 6.71533 36.9592 6.71533 44.09Z" fill="#282727"/>
<path opacity="0.8" d="M12.2964 44.958C12.2964 37.8309 10.8868 32.049 9.145 32.049C8.96473 32.049 8.78812 32.1147 8.61719 32.2333C9.00046 31.5549 9.42231 31.1777 9.86648 31.1777C11.6058 31.1777 13.0171 36.9588 13.0171 44.09C13.0171 50.4818 11.8823 55.7883 10.3935 56.8151C11.5128 54.8342 12.2964 50.2723 12.2964 44.958Z" fill="black"/>
<path d="M125.378 43.9954L116.791 43.317L116.518 47.455L114.278 45.8943C112.825 44.9601 111.795 46.8233 111.795 46.8233C111.795 46.8233 112.747 47.4899 113.243 47.846L116.352 50.0198L117.65 53.4895L123.449 53.9499C123.449 53.9499 124.759 50.6763 124.997 49.5309C125.138 48.8476 125.195 46.7502 125.195 46.7502L125.378 43.9954Z" fill="#FAC79D"/>
<path d="M147.201 41.8962H6.8413C6.79948 42.6275 6.76172 43.2836 6.76172 44.0197C6.76172 44.9462 6.79461 45.8207 6.84576 46.6595H147.105C147.279 45.8337 147.375 44.9462 147.375 44.0197C147.374 43.2836 147.314 42.5706 147.201 41.8962Z" fill="#4D4D4C"/>
<path d="M26.6226 43.9954L35.2101 43.317L35.4825 47.455L37.7229 45.8943C39.1751 44.9601 40.2056 46.8233 40.2056 46.8233C40.2056 46.8233 39.2531 47.4899 38.7574 47.846L35.6477 50.0198L34.3501 53.4895L28.5503 53.9499C28.5503 53.9499 27.2409 50.6763 27.0038 49.5309C26.8625 48.8476 26.8053 46.7502 26.8053 46.7502L26.6226 43.9954Z" fill="#FAC79D"/>
<path d="M109.81 73.9471L97.5554 51.3876C96.4076 48.7258 93.4945 47.6288 91.0487 48.9357C88.6013 50.2431 88.0463 53.362 89.1932 56.0226C89.1932 56.0226 97.6463 70.0186 104.254 81.5874C104.254 81.5874 109.126 75.0044 109.81 73.9471Z" fill="#FAC79D"/>
<path d="M123.639 53.4752C121.182 59.7257 113.48 76.8041 111.656 81.0388C110.512 83.6953 107.776 83.8975 106.443 83.2353C103.681 81.8654 103.162 80.5427 105.073 77.1253C108.959 70.1732 113.895 63.3352 117.564 53.2596L123.639 53.4752Z" fill="#FAC79D"/>
<path d="M102.564 59.9923L99.2798 52.7068C97.5059 49.0211 95.1129 47.2594 92.2156 48.4157C89.3175 49.5728 87.0557 53.2046 88.2323 56.0511C88.2323 56.0511 89.9801 58.596 94.9164 65.84C98.7585 63.5473 101.439 61.1441 102.564 59.9923Z" fill="#EA5B0C"/>
<path d="M123.94 47.2132C123.439 47.1738 123.067 46.737 123.107 46.24L123.461 41.7699C123.5 41.2709 123.936 40.8986 124.435 40.9388L124.761 40.9647C125.26 41.0041 125.633 41.4418 125.593 41.9388L125.239 46.4073C125.2 46.9063 124.763 47.2798 124.264 47.2408L123.94 47.2132Z" fill="#FAC79D"/>
<path d="M124.857 46.5937L124.915 45.8576C124.946 45.4792 124.654 45.1479 124.267 45.1163C123.879 45.0862 123.54 45.368 123.51 45.746L123.451 46.4829C123.451 46.4829 123.768 46.7334 124.164 46.7643C124.494 46.7911 124.857 46.5937 124.857 46.5937Z" fill="#FCD5B4"/>
<path d="M121.73 47.0394C121.231 46.9996 120.858 46.5623 120.897 46.0646L121.25 41.5956C121.289 41.097 121.727 40.7247 122.227 40.7645L122.554 40.7905C123.052 40.8299 123.425 41.2663 123.386 41.7641L123.032 46.2326C122.993 46.7316 122.556 47.1048 122.057 47.0646L121.73 47.0394Z" fill="#FAC79D"/>
<path d="M122.653 46.4193L122.711 45.6832C122.742 45.3052 122.45 44.9731 122.063 44.9422C121.676 44.9117 121.336 45.1935 121.305 45.5719L121.247 46.3084C121.247 46.3084 121.565 46.5585 121.96 46.5902C122.29 46.6162 122.653 46.4193 122.653 46.4193Z" fill="#FCD5B4"/>
<path d="M119.526 46.8637C119.027 46.8243 118.654 46.3875 118.693 45.8889L119.047 41.4207C119.087 40.9214 119.524 40.5494 120.023 40.5896L120.349 40.6152C120.848 40.6546 121.221 41.0911 121.182 41.5892L120.828 46.0582C120.789 46.5564 120.353 46.9291 119.853 46.8901L119.526 46.8637Z" fill="#FAC79D"/>
<path d="M120.447 46.2451L120.505 45.509C120.535 45.1306 120.244 44.7985 119.855 44.7673C119.469 44.7364 119.129 45.0194 119.098 45.397L119.04 46.1343C119.04 46.1343 119.36 46.3848 119.755 46.4157C120.082 46.4412 120.447 46.2451 120.447 46.2451Z" fill="#FCD5B4"/>
<path d="M117.318 46.6903C116.82 46.6509 116.447 46.2136 116.486 45.715L116.84 41.2465C116.88 40.7479 117.317 40.3756 117.814 40.4154L118.142 40.4418C118.639 40.4808 119.012 40.9164 118.972 41.415L118.618 45.8835C118.579 46.3829 118.142 46.7552 117.645 46.7154L117.318 46.6903Z" fill="#FAC79D"/>
<path d="M118.24 46.0698L118.298 45.3329C118.328 44.9566 118.038 44.624 117.65 44.5932C117.263 44.5615 116.922 44.8445 116.892 45.2229L116.833 45.959C116.833 45.959 117.152 46.2103 117.547 46.2416C117.877 46.2676 118.24 46.0698 118.24 46.0698Z" fill="#FCD5B4"/>
<path d="M42.1919 73.9471L54.4469 51.3876C55.5947 48.7258 58.5082 47.6288 60.9544 48.9357C63.401 50.2431 63.9564 53.362 62.809 56.0226C62.809 56.0226 54.3563 70.0186 47.7485 81.5874C47.7485 81.5874 42.8768 75.0044 42.1919 73.9471Z" fill="#FAC79D"/>
<path d="M28.3662 53.4752C30.8234 59.7257 38.5258 76.8041 40.3496 81.0388C41.4933 83.6953 44.2294 83.8975 45.5623 83.2353C48.3236 81.8654 48.8429 80.5427 46.9326 77.1253C43.0467 70.1732 38.11 63.3352 34.4405 53.2596L28.3662 53.4752Z" fill="#FAC79D"/>
<path d="M49.7573 59.6226L52.7886 52.2787C54.562 48.5925 56.9559 46.8304 59.8523 47.9863C62.7504 49.1439 65.0127 52.776 63.8361 55.6221C63.8361 55.6221 62.2088 58.1674 57.2717 65.411C53.4301 63.1183 50.8812 60.7748 49.7573 59.6226Z" fill="#EA5B0C"/>
<path d="M28.07 47.2132C28.5694 47.1738 28.9413 46.737 28.9019 46.24L28.5479 41.7699C28.5085 41.2709 28.0733 40.8986 27.5731 40.9388L27.2479 40.9647C26.7493 41.0041 26.3766 41.4418 26.4159 41.9388L26.77 46.4073C26.8094 46.9063 27.2454 47.2798 27.7444 47.2408L28.07 47.2132Z" fill="#FAC79D"/>
<path d="M27.1491 46.5937L27.091 45.8576C27.061 45.4792 27.3525 45.1479 27.7394 45.1163C28.1275 45.0862 28.4657 45.368 28.4966 45.746L28.5551 46.4829C28.5551 46.4829 28.238 46.7334 27.8425 46.7643C27.512 46.7911 27.1491 46.5937 27.1491 46.5937Z" fill="#FCD5B4"/>
<path d="M30.2778 47.0394C30.778 46.9996 31.1511 46.5623 31.1113 46.0646L30.7577 41.5956C30.7187 41.097 30.2819 40.7247 29.7821 40.7645L29.456 40.7905C28.9571 40.8299 28.5839 41.2663 28.6229 41.7641L28.977 46.2326C29.0159 46.7316 29.4528 47.1048 29.9522 47.0646L30.2778 47.0394Z" fill="#FAC79D"/>
<path d="M29.3562 46.4193L29.2982 45.6832C29.2669 45.3052 29.5593 44.9731 29.9462 44.9422C30.3331 44.9117 30.6737 45.1935 30.7038 45.5719L30.7623 46.3084C30.7623 46.3084 30.4435 46.5585 30.0485 46.5902C29.7196 46.6162 29.3562 46.4193 29.3562 46.4193Z" fill="#FCD5B4"/>
<path d="M32.4822 46.8637C32.9816 46.8243 33.3547 46.3875 33.315 45.8889L32.9613 41.4207C32.9223 40.9214 32.4855 40.5494 31.9853 40.5896L31.6601 40.6152C31.1603 40.6546 30.7876 41.0911 30.8265 41.5892L31.1806 46.0582C31.2195 46.5564 31.6564 46.9291 32.1566 46.8901L32.4822 46.8637Z" fill="#FAC79D"/>
<path d="M31.563 46.2451L31.505 45.509C31.4757 45.1306 31.766 44.7985 32.1546 44.7673C32.5419 44.7364 32.8809 45.0194 32.9122 45.397L32.9702 46.1343C32.9702 46.1343 32.6511 46.3848 32.2557 46.4157C31.9272 46.4412 31.563 46.2451 31.563 46.2451Z" fill="#FCD5B4"/>
<path d="M34.6914 46.6903C35.1896 46.6509 35.5627 46.2136 35.5225 45.715L35.1689 41.2465C35.1295 40.7479 34.6923 40.3756 34.1957 40.4154L33.8676 40.4418C33.3699 40.4808 32.9972 40.9164 33.0365 41.415L33.3906 45.8835C33.43 46.3829 33.8668 46.7552 34.3642 46.7154L34.6914 46.6903Z" fill="#FAC79D"/>
<path d="M33.7697 46.0698L33.7116 45.3329C33.6816 44.9566 33.9715 44.624 34.36 44.5932C34.7469 44.5615 35.0876 44.8445 35.1172 45.2229L35.1753 45.959C35.1753 45.959 34.8574 46.2103 34.4619 46.2416C34.1326 46.2676 33.7697 46.0698 33.7697 46.0698Z" fill="#FCD5B4"/>
<path d="M86.9111 44.5669C84.1129 43.7643 82.4775 42.5239 81.2968 41.4395H76.2517H71.0345C69.7126 42.7375 68.6582 43.6867 65.6261 44.5243L65.5977 44.5438C65.7162 49.9851 70.4239 54.297 76.2517 54.3039C82.0812 54.297 86.8218 50.0286 86.9407 44.586L86.9111 44.5669Z" fill="#FBCDA7"/>
<path d="M85.7463 4.31451C83.7484 2.73676 82.4138 2.85085 81.8413 3.02503C81.8413 3.02381 77.3026 -4.12967 66.1698 4.04695C61.7463 7.29665 60.3643 15.064 60.3643 19.4794C60.3643 27.4993 65.5989 33.5703 73.1994 37.6231L76.7029 37.1465C94.316 33.6434 92.5173 9.66084 85.7463 4.31451Z" fill="#482803"/>
<path d="M71.0342 34.679C71.0342 34.679 71.0342 42.3489 71.0342 43.9339C71.0342 45.9632 73.9749 47.8397 76.16 47.871C78.3448 47.8397 81.2855 46.4902 81.2855 43.9339C81.2855 42.3489 81.2855 34.679 81.2855 34.679H71.0342Z" fill="#FBCDA7"/>
<path d="M71.0342 36.2851C72.8604 37.5462 74.7013 38.2218 76.2161 38.2218C77.789 38.2218 79.5758 37.5969 81.2855 36.288C81.2855 35.3298 81.2855 34.679 81.2855 34.679H71.0342C71.0342 34.679 71.0342 35.3278 71.0342 36.2851Z" fill="#EDEDED"/>
<path d="M76.1514 2.79652C76.1514 2.79652 88.2415 2.00278 88.2415 16.4685C88.2415 30.9293 81.1234 37.1457 76.1514 37.1457C71.1798 37.1457 62.7056 29.9151 62.7056 18.2752C62.7056 6.63859 68.1299 3.13554 76.1514 2.79652Z" fill="#FBCDA7"/>
<path d="M87.7419 18.9258C87.7419 18.9258 88.089 16.5936 89.3509 16.899C90.6107 17.2043 90.4966 20.7215 89.3509 22.4414C88.2027 24.1633 87.5522 23.6277 87.5522 23.6277" fill="#FBCDA7"/>
<path d="M63.2124 18.9258C63.2124 18.9258 62.8681 16.5936 61.5972 16.899C60.3297 17.2043 60.4454 20.7215 61.5972 22.4414C62.7528 24.1633 63.4056 23.6277 63.4056 23.6277" fill="#FBCDA7"/>
<path d="M77.9419 9.41346C77.9419 9.41346 88.9013 15.4309 87.2651 23.1252C87.2651 23.1252 89.4746 17.385 88.3824 9.9571C87.4397 3.54134 81.7645 4.60184 81.7645 4.60184L77.9419 9.41346Z" fill="#683C11"/>
<path d="M80.1997 10.4119C80.1997 10.4119 86.4433 14.2815 87.2423 18.4784C87.2423 18.4784 88.19 12.2649 81.5209 9.03467L80.1997 10.4119Z" fill="#B2B2B2"/>
<path d="M82.8365 5.22418C82.8365 5.22418 89.0963 6.26884 87.6757 16.3602C87.6757 16.3602 87.3359 10.2315 81.4199 8.76012C81.4199 8.76012 82.0062 7.91643 82.3862 7.23474C83.0488 6.04513 82.8365 5.22418 82.8365 5.22418Z" fill="#B2B2B2"/>
<path d="M64.8607 27.7987C64.8607 27.7987 63.6914 16.8852 69.9764 14.9814C77.1056 12.8242 83.2404 10.0679 83.2404 4.9363C83.2404 4.9363 79.6715 0.581444 72.9898 2.5311C70.2213 3.33825 67.6163 4.55952 65.1413 6.78811C61.9354 9.67118 60.6898 20.7037 64.8607 27.7987Z" fill="#683C11"/>
<path d="M83.0327 6.02351C83.0327 6.02351 80.7757 8.95855 76.7343 9.90374C72.6905 10.851 65.3998 10.8834 63.8123 22.7044C63.8123 22.7044 63.6401 13.3715 68.5232 10.607C74.5463 7.19769 79.1777 7.85056 79.9836 4.53021L83.0327 6.02351Z" fill="#B2B2B2"/>
<path d="M63.3316 16.2783C63.3316 16.2783 64.7705 7.9844 74.9524 6.85326C77.9585 6.52033 79.3276 5.30067 79.0889 4.34249C79.0889 4.34249 77.0625 2.53494 72.706 3.86178C62.8209 6.87274 63.3316 16.2783 63.3316 16.2783Z" fill="#B2B2B2"/>
<path d="M64.3919 92.9999H88.0907C82.5617 77.6141 92.1877 56.2081 95.4801 48.3843L83.9429 43.2008C84.0765 47.7497 77.8897 49.321 76.3254 49.321C74.0623 49.321 68.3233 47.7497 68.3233 43.3965L56.2852 48.0948C59.5787 55.9215 69.8069 77.5666 64.3919 92.9999Z" fill="#EA5B0C"/>
<path d="M66.6788 33.407C66.6788 33.407 59.5546 32.1763 58.3816 44.1938C57.518 53.0294 63.8177 56.7574 65.665 60.0395C67.5087 63.3225 63.9269 67.0322 63.9269 67.0322C63.9269 67.0322 69.9366 64.3895 69.0613 58.0781C68.1884 51.7667 65.9569 47.8848 67.9943 44.1938C70.0337 40.5032 70.4377 35.0943 70.4377 35.0943C68.4644 33.0261 66.6788 33.407 66.6788 33.407Z" fill="#482803"/>
<path d="M89.4042 23.8253C89.4042 24.302 89.0185 24.6885 88.5418 24.6885C88.0664 24.6885 87.6807 24.302 87.6807 23.8253C87.6807 23.3487 88.0664 22.963 88.5418 22.963C89.0189 22.963 89.4042 23.3487 89.4042 23.8253Z" fill="white"/>
<path d="M63.1538 23.8253C63.1538 24.302 62.7668 24.6885 62.2898 24.6885C61.8143 24.6885 61.4282 24.302 61.4282 23.8253C61.4282 23.3487 61.8143 22.963 62.2898 22.963C62.7668 22.963 63.1538 23.3487 63.1538 23.8253Z" fill="white"/>
</svg>
