<svg width="84" height="114" viewBox="0 0 84 114" fill="none" xmlns="http://www.w3.org/2000/svg">
<path d="M81.7704 44.4847C82.0994 42.5722 83.9954 40.7313 83.9954 38.7334C83.9954 36.7354 82.0994 34.8957 81.7704 32.982C81.432 31.0174 82.609 28.7358 81.9487 26.8843C81.28 25.0007 78.8517 23.7869 77.8785 22.0469C76.8977 20.2886 77.2383 17.7844 75.9754 16.1999C74.7057 14.608 71.9881 14.1368 70.4661 12.7472C68.9441 11.3576 68.4278 8.87779 66.6834 7.71889C64.9474 6.56609 62.2044 6.87901 60.278 5.98135C58.3713 5.09305 57.0415 2.8786 54.9778 2.2666C52.9494 1.66558 50.4502 2.73984 48.2979 2.42937C46.2026 2.12865 44.1857 0.398438 41.9968 0.398438C39.8079 0.398438 37.7924 2.12865 35.6958 2.42937C33.5434 2.73822 31.0442 1.66395 29.0158 2.2666C26.9522 2.87697 25.6223 5.09305 23.7156 5.98135C21.7893 6.87901 19.0462 6.56609 17.3102 7.71889C15.5658 8.87779 15.0496 11.3584 13.5276 12.7472C12.0056 14.136 9.28795 14.608 8.01829 16.1999C6.7571 17.7844 7.09993 20.2886 6.11692 22.0481C5.14372 23.7881 2.7172 25.0019 2.0467 26.8855C1.38824 28.737 2.56517 31.0186 2.22502 32.9832C1.89602 34.8957 0 36.7362 0 38.7346C0 40.733 1.89602 42.5718 2.22502 44.486C2.56339 46.4506 1.38646 48.7318 2.0467 50.5832C2.71541 52.4669 5.14372 53.6807 6.11692 55.4207C7.09993 57.179 6.7571 59.6831 8.02007 61.2677C9.28973 62.8595 12.0074 63.3312 13.5294 64.7204C15.0513 66.1096 15.5676 68.5902 17.312 69.7487C19.048 70.9015 21.7911 70.5885 23.7174 71.4862C25.6241 72.3745 26.954 74.5894 29.0176 75.2014C31.046 75.802 33.5452 74.7281 35.6976 75.0386C37.7929 75.3389 39.8097 77.0691 41.9986 77.0691C44.1875 77.0691 46.203 75.3389 48.2996 75.0386C50.452 74.7297 52.9512 75.8036 54.9796 75.2014C57.0433 74.591 58.3731 72.3745 60.2798 71.4862C62.2062 70.5885 64.9492 70.9015 66.6852 69.7487C68.4296 68.5902 68.9459 66.1092 70.4678 64.7204C71.9898 63.3316 74.7075 62.8595 75.9771 61.2677C77.2401 59.6831 76.8973 57.179 77.8803 55.4207C78.8535 53.6807 81.28 52.4669 81.9505 50.5832C82.609 48.7305 81.432 46.4493 81.7704 44.4847ZM41.9986 70.6854C22.6653 70.6854 6.99293 56.3798 6.99293 38.7334C6.99293 21.087 22.6653 6.78135 41.9986 6.78135C61.3319 6.78135 77.0043 21.0866 77.0043 38.7317C77.0043 56.3769 61.3319 70.6854 41.9986 70.6854Z" fill="#1C4670"/>
<path d="M42 67.8902C59.6421 67.8902 73.9439 54.8361 73.9439 38.7329C73.9439 22.6298 59.6421 9.57562 42 9.57562C24.3579 9.57562 10.0562 22.6298 10.0562 38.7329C10.0562 54.8361 24.3579 67.8902 42 67.8902Z" fill="#53B75A"/>
<path d="M46.2058 78.717L41.9992 90.8122L34.4499 112.516C33.9849 113.854 31.9734 113.996 31.2878 112.741L24.0969 99.5703L9.90105 106.543C8.54713 107.208 6.99394 106.032 7.45847 104.694L18.4485 73.0991C19.0914 73.2464 19.7173 73.3432 20.2866 73.4291C21.0846 73.5511 21.9093 73.6769 22.3734 73.8934C22.8192 74.1017 23.4095 74.6315 23.9783 75.1438C25.0135 76.0765 26.3019 77.2366 28.1051 77.7717C28.8282 77.9857 29.5973 78.0895 30.4572 78.0895C31.3845 78.0895 32.285 77.9674 33.0759 77.8563C33.7281 77.7664 34.3433 77.6818 34.8408 77.6818C34.9751 77.6806 35.1092 77.6889 35.2421 77.7066C35.7271 77.7758 36.4587 78.1103 37.1666 78.4333C37.369 78.5257 37.5785 78.6213 37.7957 78.7182C38.9806 79.2419 40.3894 79.7709 42.0023 79.7709C43.6152 79.7709 45.0209 79.2407 46.2058 78.717Z" fill="#53B75A"/>
<path d="M74.0942 106.543L59.8974 99.5703L52.7066 112.741C52.0209 113.996 50.0094 113.854 49.5444 112.516L43.5483 95.2769L49.6599 77.705C50.0455 77.7359 50.4744 77.7949 50.9198 77.8563C51.3161 77.9109 51.7392 77.9691 52.1787 78.0138C52.6301 78.062 53.084 78.0873 53.5384 78.0895C54.3984 78.0895 55.1674 77.9857 55.8905 77.7713C57.6938 77.237 58.9822 76.0765 60.0174 75.1438C60.5858 74.6315 61.1738 74.1017 61.6223 73.8934C62.0855 73.6769 62.9102 73.5511 63.7082 73.4291C64.2775 73.342 64.9034 73.2464 65.5463 73.0991L76.5376 104.694C77.0022 106.032 75.449 107.208 74.0942 106.543Z" fill="#53B75A"/>
<path d="M60.745 25.6569C59.6176 26.2945 58.4188 26.9956 57.5499 27.8978C56.2571 29.171 55.5237 30.7995 55.205 32.5061C54.8764 34.2966 54.8407 36.087 54.6459 37.9039C54.4578 39.7733 54.082 41.7102 53.1993 43.4323C52.3214 45.168 51.1619 46.773 49.7599 48.1932C49.048 48.9201 48.2451 49.5681 47.3677 50.124C44.7312 51.8591 41.3207 52.6713 38.0976 52.1432C35.9724 51.8176 33.9515 51.0205 32.1683 49.9312C31.6504 49.6124 31.1527 49.2672 30.6775 48.8972C29.7303 50.0908 28.8062 51.298 27.9051 52.5188C27.6117 52.9257 27.3184 53.3326 27.0161 53.7362C26.7384 54.1293 26.4187 54.5794 26.1245 54.9643C26.3095 54.3413 26.5186 53.6858 26.762 53.0783C27.597 50.9033 28.7236 48.8182 30.0124 46.8386C31.6739 44.3023 33.6484 41.9023 35.8079 39.7004C37.2498 38.2299 38.7857 36.8385 40.4077 35.5336C42.5784 33.8103 44.8734 32.1899 47.4069 30.9309C43.12 35.156 38.7181 39.4941 34.7906 43.9832C33.8428 45.0583 32.9146 46.1504 32.006 47.2593C33.7893 48.7544 36.1048 49.8457 38.4622 50.2477C44.5462 51.2935 49.6359 46.922 52.0313 42.2034C53.1115 39.9543 53.2202 37.4791 53.5024 35.0526C53.7793 32.384 54.2429 29.8559 56.1746 27.7134C56.7673 27.0602 57.448 26.4778 58.2003 25.98C55.0422 25.0982 51.7745 24.5114 48.4706 24.4361C46.8625 24.396 45.2538 24.4937 43.6657 24.7279C39.237 25.3684 35.0389 27.4009 32.0818 30.4854C31.2428 31.357 30.5124 32.311 29.9041 33.3297C28.4186 35.8583 27.6371 39.0384 27.7539 41.9055C27.7892 42.3259 27.823 42.76 28.0214 43.1491C27.8141 42.7653 27.7691 42.3279 27.7223 41.908C27.6148 40.6315 27.737 39.3472 27.9612 38.0854C28.3433 35.9771 29.1061 33.9088 30.3575 32.0923C31.0439 31.0894 31.8461 30.1564 32.7501 29.3094C33.9041 28.2291 35.2036 27.2869 36.6175 26.5053C43.5025 22.6437 52.1761 23.2548 59.6158 25.3431L60.745 25.6569Z" fill="white"/>
</svg>
