<svg width="18" height="19" viewBox="0 0 18 19" fill="none" xmlns="http://www.w3.org/2000/svg">
<path d="M16 0.959961C16.5304 0.959961 17.0391 1.17067 17.4142 1.54575C17.7893 1.92082 18 2.42953 18 2.95996V16.96C18 17.4904 17.7893 17.9991 17.4142 18.3742C17.0391 18.7492 16.5304 18.96 16 18.96H2C1.46957 18.96 0.960859 18.7492 0.585786 18.3742C0.210714 17.9991 0 17.4904 0 16.96V2.95996C0 2.42953 0.210714 1.92082 0.585786 1.54575C0.960859 1.17067 1.46957 0.959961 2 0.959961H16ZM15.5 16.46V11.16C15.5 10.2954 15.1565 9.46616 14.5452 8.85479C13.9338 8.24342 13.1046 7.89996 12.24 7.89996C11.39 7.89996 10.4 8.41996 9.92 9.19996V8.08996H7.13V16.46H9.92V11.53C9.92 10.76 10.54 10.13 11.31 10.13C11.6813 10.13 12.0374 10.2775 12.2999 10.54C12.5625 10.8026 12.71 11.1587 12.71 11.53V16.46H15.5ZM3.88 6.51996C4.32556 6.51996 4.75288 6.34296 5.06794 6.0279C5.383 5.71284 5.56 5.28552 5.56 4.83996C5.56 3.90996 4.81 3.14996 3.88 3.14996C3.43178 3.14996 3.00193 3.32801 2.68499 3.64495C2.36805 3.96189 2.19 4.39175 2.19 4.83996C2.19 5.76996 2.95 6.51996 3.88 6.51996ZM5.27 16.46V8.08996H2.5V16.46H5.27Z" fill="#111111"/>
</svg>
