<svg width="34" height="40" viewBox="0 0 34 40" fill="none" xmlns="http://www.w3.org/2000/svg">
<path d="M33.5692 36.8379L32.0451 38.821C31.5212 39.5038 30.7295 39.9295 29.8714 39.9834C27.9391 40.1067 23.786 39.6044 18.1488 36.3302C10.0725 31.6388 4.02539 24.0744 1.31246 15.1192C-0.53645 9.01462 -0.0519578 4.96415 0.489547 3.11469C0.73206 2.28842 1.32015 1.60793 2.09975 1.24539L4.36503 0.19305C5.31141 -0.246495 6.4356 0.0863502 6.99187 0.969789L12.6559 9.97011C13.2676 10.941 12.9774 12.2255 12.0085 12.8384L9.48977 14.4326C9.18141 14.6274 9.0377 15.0015 9.13589 15.3529C9.16771 15.4673 9.20501 15.5966 9.24779 15.7402C10.8843 21.2033 14.5684 25.8258 19.522 28.6325C19.652 28.7063 19.77 28.7717 19.8742 28.8278C20.1946 29.0011 20.5902 28.9434 20.8474 28.6853L22.9542 26.573C23.7639 25.761 25.0773 25.761 25.8877 26.573L33.3924 34.0979C34.1294 34.8372 34.2051 36.0101 33.5692 36.8379Z" fill="#F79428"/>
</svg>
